<svg xmlns="http://www.w3.org/2000/svg" width="800" height="480" viewBox="0 0 800 480">
  <rect width="800" height="480" fill="#07111d"/>
  <rect width="800" height="70" fill="#101d2c"/>
  <rect y="67" width="800" height="3" fill="#00cbea"/>
  <rect x="16" y="10" width="6" height="43" rx="3" fill="#00cbea"/>
  <text x="32" y="37" fill="#f1f5f9" font-family="Arial, sans-serif" font-size="31" font-weight="700">P2000</text>
  <text x="33" y="59" fill="#a4b2c3" font-family="Arial, sans-serif" font-size="13">Amsterdam-Amstelland  |  WiFi verbonden</text>
  <rect x="654" y="12" width="118" height="44" rx="9" fill="#17283b" stroke="#00cbea"/>
  <text x="680" y="39" fill="#00cbea" font-family="Arial, sans-serif" font-size="14" font-weight="700">CONFIG</text>
  <text x="24" y="96" fill="#00cbea" font-family="Arial, sans-serif" font-size="13" font-weight="700" letter-spacing="1.5">LAATSTE MELDINGEN</text>

  <g transform="translate(24 106)">
    <rect width="752" height="100" rx="12" fill="#101d2c"/>
    <rect width="8" height="100" rx="4" fill="#e5484d"/>
    <circle cx="42" cy="50" r="27" fill="#e5484d"/>
    <text x="26" y="55" fill="white" font-family="Arial, sans-serif" font-size="13" font-weight="700">BRW</text>
    <text x="82" y="31" fill="#f1f5f9" font-family="Arial, sans-serif" font-size="21" font-weight="700">Amsterdam</text>
    <text x="82" y="58" fill="#00cbea" font-family="Arial, sans-serif" font-size="13">12:04  |  Capcode 0101200</text>
    <text x="82" y="82" fill="#a4b2c3" font-family="Arial, sans-serif" font-size="14">Brandgerucht  |  Nieuwezijds Voorburgwal</text>
  </g>

  <g transform="translate(24 216)">
    <rect width="752" height="100" rx="12" fill="#101d2c"/>
    <rect width="8" height="100" rx="4" fill="#3b82f6"/>
    <circle cx="42" cy="50" r="27" fill="#3b82f6"/>
    <text x="27" y="55" fill="white" font-family="Arial, sans-serif" font-size="13" font-weight="700">POL</text>
    <text x="82" y="31" fill="#f1f5f9" font-family="Arial, sans-serif" font-size="21" font-weight="700">Amstelveen</text>
    <text x="82" y="58" fill="#00cbea" font-family="Arial, sans-serif" font-size="13">11:57  |  Capcode 0100001</text>
    <text x="82" y="82" fill="#a4b2c3" font-family="Arial, sans-serif" font-size="14">Assistentie politie  |  Keizer Karelweg</text>
  </g>

  <g transform="translate(24 326)">
    <rect width="752" height="100" rx="12" fill="#101d2c"/>
    <rect width="8" height="100" rx="4" fill="#22c55e"/>
    <circle cx="42" cy="50" r="27" fill="#22c55e"/>
    <text x="25" y="55" fill="white" font-family="Arial, sans-serif" font-size="13" font-weight="700">AMB</text>
    <text x="82" y="31" fill="#f1f5f9" font-family="Arial, sans-serif" font-size="21" font-weight="700">Diemen</text>
    <text x="82" y="58" fill="#00cbea" font-family="Arial, sans-serif" font-size="13">11:45  |  Capcode 0101460</text>
    <text x="82" y="82" fill="#a4b2c3" font-family="Arial, sans-serif" font-size="14">A1 ambulance-inzet  |  Diemerplein</text>
  </g>

  <text x="620" y="464" fill="#a4b2c3" font-family="Arial, sans-serif" font-size="12">Veeg omhoog  |  1/8</text>
</svg>

